<?xml version="1.0" encoding="UTF-8"?>
<svg width="100pt" height="100pt" version="1.1" viewBox="0 0 100 100" xmlns="http://www.w3.org/2000/svg">
 <g>
  <path d="m54.07 57.93c-1.2617 0.39844-2.5898 0.64844-3.9219 0.60937-2.6289-0.078124-5.2109-0.87109-7.4297-2.1992l-0.76172-0.53906c-0.48047-0.33984-0.64062-1.6719-2.7383 1.3516-2.2695 3.2695-0.87109 2.8516-0.42969 3.1992l0.89063 0.67188h0.011718s0.12109 0.078124 0.12109 0.078124c3.0781 1.9102 6.75 2.6484 10.309 2.6406 3.5898-0.019532 7.1016-0.69141 10.789-1.8008l0.19141-0.12109 0.55859-0.19141c0.80859-0.26172 1.9414-0.71094-0.35938-4.0508-1.8906-2.7383-2.6289-1.8281-3.2695-1.4414l-0.55078 0.33984 0.21094-0.12891c-1.1719 0.60938-2.3594 1.1719-3.6289 1.5703z"/>
  <path d="m39.93 39.398c-0.85938-4.9883-8.2891-4.8008-8.6289 0.32031-0.71094 6.9688 10.609 6.0703 8.6289-0.32031z"/>
  <path d="m60.102 39.719c-0.71094 6.9688 10.609 6.0703 8.6289-0.32031-0.85938-4.9883-8.2891-4.8008-8.6289 0.32031z"/>
  <path d="m92.441 35.809c-0.17969-0.62109 0.44141-1.8789-3.0586-0.71875-3.7695 1.25-2.4492 1.6992-2.3398 2.2383 0.66016 3.25 1.3203 6.5117 1.2188 9.8398-0.089844 3.3008-1 6.6484-3.3008 9.2109-0.53125 0.60156-1.2617 1.3984 3.3984 3.2383 3.8203 1.5117 3.8516 0.14062 4.1289-0.66016 1.3008-3.6484 1.4102-7.5781 1.5117-11.359 0.10156-3.9688-0.39844-7.9805-1.5508-11.789z"/>
  <path d="m75.289 22.422c0.32813 0.69922 0.76172 1.6719 4.25-1.9219 2.8516-2.9414 1.6602-3.4492 1.0781-3.9805-2.6719-2.4883-6.0117-4.0586-9.1484-5.7109-3.3086-1.7305-6.8398-3.0508-10.469-3.8984-0.58984-0.12891-1.3008-1.3008-2.0586 2.3086-0.82031 3.8906 0.19922 2.9805 0.69922 3.1406 3.0312 1.0312 6.1094 1.8984 8.9297 3.4219 2.8008 1.4883 5.3594 3.6094 6.7305 6.6602z"/>
  <path d="m13.16 69.719-0.42969 0.94141c-0.58984 1.2383-1.2305 2.4492-1.9297 3.6211-0.37109 0.62109-0.73828 1.1992-1.1484 1.8086l-1.2891 1.9297-0.67969 1.0312c-0.33984 0.51953-0.62109 1.0898-0.83984 1.6797-0.44922 1.1719-0.66016 2.4297-0.60938 3.6797 0.089844 2.5117 1.2383 4.9492 3.1211 6.6094 0.94141 0.82812 2.0391 1.4688 3.2305 1.8711 0.58984 0.21094 1.2109 0.32812 1.8281 0.42188 0.30859 0.039062 0.62109 0.058594 0.94141 0.070312h0.39062 0.32031c6.8281-0.070312 13.641-2.0703 19.43-5.6719 0.37109-0.21875 0.71875-0.46094 1.0703-0.69141l0.42188-0.26953c0.078125-0.050781 0.16016-0.10156 0.25-0.14062 0.32812-0.17969 0.67969-0.28125 1.0117-0.32812 0.16016-0.019531 0.32031-0.03125 0.46875-0.019531 0.078125 0 0.14844 0.011719 0.21875 0.019531 0.039062 0 0.070312 0.011719 0.10938 0.019531l0.19141 0.039063c0.82031 0.19922 1.6406 0.37109 2.4609 0.51953 3.2891 0.60156 6.6602 0.85938 10 0.73047 6.6914-0.21094 13.352-1.8984 19.328-4.9609 1.9688-0.98828 4.4688-2.2188 6.1406-3.7305 1.6797-1.5117 2.5-3.1719 1.3711-4.6094-1.2383-1.5781-2.7812-1.1211-4.4492-0.16016-1.6719 0.96875-3.5703 2.4688-5.2188 3.3008-5.1211 2.6211-10.801 4.0703-16.539 4.3711-2.8711 0.14844-5.75 0-8.5781-0.44922-0.71094-0.10937-1.4102-0.23828-2.1211-0.39062l-1.0508-0.23828c-0.41016-0.10156-1-0.21094-1.5-0.23047-1.0391-0.070313-2.0703 0.078124-3.0312 0.37891-0.48047 0.14844-0.94922 0.33984-1.3906 0.57031-0.21875 0.10938-0.44141 0.23828-0.64844 0.35938l-0.55078 0.35938c-4.6992 3.1719-10.23 5.0781-15.891 5.4297-0.69141 0.050781-1.4609 0.058594-2.0781 0.070312-0.46875 0-0.94141-0.10938-1.3711-0.30078-0.87109-0.37891-1.5703-1.1094-1.8984-2-0.33984-0.87891-0.30859-1.8984 0.078125-2.7617 0.039063-0.10938 0.10938-0.21094 0.16016-0.32031l0.23047-0.35156 0.62891-0.94141 1.2617-1.8906c0.87891-1.3203 1.6914-2.6797 2.4297-4.0781 0.37109-0.69922 0.73047-1.3984 1.0703-2.1211l0.5-1.0703 0.25-0.57031c0.12109-0.30078 0.21875-0.60938 0.28906-0.92188 0.26953-1.2617 0.058594-2.5195-0.39844-3.5703-0.10938-0.26953-0.25-0.51953-0.39062-0.76172l-0.37109-0.57031-0.58984-0.89063c-0.76172-1.1992-1.4414-2.4492-2.0391-3.7305-2.3984-5.1289-3.4414-10.871-2.8594-16.461 0.019532-0.69922 0.16016-1.3906 0.26953-2.0781 0.12891-0.69141 0.19141-1.3906 0.37891-2.0586 0.35938-1.3516 0.69141-2.7109 1.2305-4 0.42969-1.3281 1.1094-2.5508 1.6992-3.8086 0.33984-0.60938 0.71875-1.1914 1.0703-1.7891l0.53906-0.89062 0.62109-0.83984c1.5703-2.2891 3.5508-4.2695 5.6211-6.0781 2.1016-1.8008 4.4492-3.2617 6.8711-4.5391 2.3281-1.0781 5.1602-2.2891 7.3984-3.4219 1.0898-0.67188 2.0586-1.25 2.6602-2.1016 0.60156-0.82813 0.87891-1.8398 0.58984-3.0508-0.23828-1-0.89844-1.6016-1.8789-1.9102-0.96875-0.30078-2.2812-0.37891-3.6719-0.078125-0.69922 0.12891-1.4414 0.30078-2.1914 0.51172-0.73828 0.23828-1.4805 0.53906-2.2188 0.83984-1.5117 0.55859-2.8789 1.3984-4.1484 2.0508-2.8008 1.6289-5.5312 3.4609-7.9102 5.6992-1.25 1.0391-2.3203 2.3008-3.4492 3.4688-0.53125 0.62109-1.0312 1.2695-1.5391 1.9102l-0.76172 0.96094-0.67969 1.0195c-1.9102 2.6719-3.3281 5.6602-4.5312 8.7109-0.51953 1.5586-1.0703 3.1094-1.3906 4.7305-0.42969 1.5898-0.60156 3.2305-0.80859 4.8594-0.67188 6.5312 0.39062 13.219 3 19.211 0.64062 1.5 1.3789 2.9609 2.1992 4.3594 0.41016 0.69922 0.83984 1.3906 1.2891 2.0703l0.62891 0.92969c0.050781 0.070313 0.070313 0.12109 0.089844 0.16016l-0.039063 0.089844-0.21094 0.46875z"/>
 </g>
</svg>
